# xmcd
#
# Track frame offsets:
#	150
#	15684
#	32753
#	47443
#	61526
#	77095
#	104716
#	120112
#	141744
#	155367
#
# Disc length: 2312 seconds
#
# Revision: 8
# Processed by: cddbd v1.5.2PL0 Copyright (c) Steve Scherf et al.
# Submitted via: EasyCDDAExtractor 15.3.0.1
#
DISCID=7809060a
DTITLE=Mariah Carey - Caution
DYEAR=2018
DGENRE=R&B/Pop
TTITLE0=GTFO
TTITLE1=With You
TTITLE2=Caution
TTITLE3=A No No
TTITLE4=The Distance (Featuring Ty Dolla $ign)
TTITLE5=Giving Me Life (Featuring Slick Rick and Blood Orange)
TTITLE6=One Mo' Gen
TTITLE7=8th Grade
TTITLE8=Stay Long Love You (Featuring Gunna)
TTITLE9=Portrait
EXTD=MARO\n
EXTT0=
EXTT1=
EXTT2=
EXTT3=
EXTT4=
EXTT5=
EXTT6=
EXTT7=
EXTT8=
EXTT9=
PLAYORDER=
